<svg xmlns="http://www.w3.org/2000/svg">

  <symbol id="ru" viewBox="0 0 512 512"><path fill="#F5F5F5" d="M512 200.1H0v-103c0-4.87 3.95-8.82 8.83-8.82h494.34c4.88 0 8.83 3.95 8.83 8.82v103z"/><path fill="#FF4B55" d="M503.17 423.73H8.83c-4.88 0-8.83-3.96-8.83-8.83v-103h512v103c0 4.87-3.95 8.83-8.83 8.83z"/><path fill="#41479B" d="M0 200.1h512v111.8H0z"/></symbol>
  
  <symbol id="md" viewBox="0 0 512 512"><path fill="#41479B" d="M170.67 423.72H8.83c-4.88 0-8.83-3.95-8.83-8.83V97.1c0-4.87 3.95-8.83 8.83-8.83h161.84v335.45z"/><path fill="#FFE15A" d="M170.67 88.28h170.67v335.45H170.67z"/><path fill="#FF4B55" d="M503.17 423.72H341.33V88.27h161.84c4.88 0 8.83 3.96 8.83 8.83v317.8c0 4.87-3.95 8.82-8.83 8.82z"/></symbol>

  <symbol id="logo" viewBox="0 0 320 70"><g fill-rule="evenodd" clip-rule="evenodd"><path fill="#342B84" d="M22 .5c.3-.3.6-.3 1-.4l29.2.2c.9.1 1.4.6 1.9 1.3.1.7.1 1.1 0 1.6-1.9 5.7-3.5 11-5.4 16.7-.2.3-.3.7-.6 1-.5.3-.6.4-1.2.5l-3.1.1c-1.1.2-1.6 1.3-1.7 1.9.4 1.2.7 1.8 1.7 2h9c.7.2 1.2.5 1.8 1.4-.1 1.3.1 1.7-.4 2.9L49.5 44c-.1.3-.4 1.1-.8 1.3-.5.3-.9.5-3 .5l-9.2.2c-1.1 0-2 1.1-2.4 3.1.1 1.1.2 1.4 1.4 2.2l38-.3c1 .1 1.5.5 1.8 1 .3.7.3 1.5.2 1.8l-4.6 14.3c-.2.6-.5 1.1-.8 1.4-.8.5-.8.5-2.6.5H2.2c-.9 0-1.4 0-2.1-1.2-.2-.4-.2-1.2.2-2.3l21.1-65c.1-.2.2-.6.6-1z"/><path fill="#E43022" d="M92 1.2C91.6.6 91.1 0 90.2 0L63.5.1c-.6 0-1.2.2-1.8.6-.4.5-.6 1.1-.8 1.8l-5.1 15.7c-.1.6 0 1.3.3 1.7.3.5.7.8 1.3 1h3.3c.4.2.8.4 1.3 1.1.2.9 0 1.5-.2 2.4l-5.9 18.3c-.3 1.2-.2 1.5 0 2.2.4.5 1 .9 1.7 1l19.1.1c.7-.1.9-.4 1.4-.7.3-.4.4-.6.6-1l13.1-41c.3-.8.3-1.5.2-2.1z"/></g><path class="togglable" fill="#342B84" d="M120.9 24.7h-11.5v5.9H120c.8 0 1.4.2 1.7.5.4.3.6.8.6 1.3s-.2 1-.6 1.3c-.4.3-1 .5-1.8.5h-10.6v6.9h11.9c.8 0 1.4.2 1.8.5.4.4.6.8.6 1.4 0 .6-.2 1-.6 1.4-.4.4-1 .5-1.8.5h-13.9c-1.1 0-1.9-.2-2.4-.7-.5-.5-.7-1.2-.7-2.3v-18c0-.7.1-1.3.3-1.7.2-.4.6-.8 1-1 .5-.2 1.1-.3 1.8-.3h13.5c.8 0 1.4.2 1.8.5.4.3.6.8.6 1.4 0 .6-.2 1-.6 1.4-.3.3-.9.5-1.7.5zM147 37.8c0 1.5-.4 2.8-1.2 3.9-.8 1.2-1.9 2.1-3.4 2.7-1.5.7-3.3 1-5.4 1-2.5 0-4.5-.4-6.2-1.3-1.1-.6-2.1-1.5-2.8-2.6-.7-1.1-1.1-2.1-1.1-3.1 0-.6.2-1.1.6-1.5.4-.4 1-.6 1.6-.6.5 0 1 .2 1.4.5.4.3.7.8 1 1.5.3.8.7 1.4 1 1.9.4.5.9.9 1.6 1.3.7.3 1.6.5 2.7.5 1.5 0 2.7-.3 3.7-1 .9-.7 1.4-1.5 1.4-2.5 0-.8-.3-1.5-.8-1.9-.5-.5-1.2-.9-2-1.1-.8-.3-1.9-.5-3.2-.8-1.8-.4-3.3-.9-4.5-1.4-1.2-.5-2.2-1.3-2.9-2.2-.7-.9-1.1-2.1-1.1-3.5 0-1.3.4-2.5 1.1-3.5.8-1 1.9-1.8 3.3-2.4 1.4-.6 3.1-.8 5.1-.8 1.5 0 2.9.2 4 .5 1.1.4 2.1.9 2.8 1.5.7.6 1.3 1.2 1.6 1.9.3.7.5 1.3.5 2 0 .6-.2 1.1-.6 1.6-.4.5-1 .7-1.6.7-.6 0-1-.1-1.3-.4-.3-.3-.6-.7-1-1.4-.5-.9-1-1.6-1.7-2.1-.6-.5-1.7-.8-3.1-.8-1.3 0-2.4.3-3.2.8-.8.6-1.2 1.2-1.2 2 0 .5.1.9.4 1.3.3.3.7.7 1.1.9.5.3 1 .4 1.5.6.5.1 1.3.3 2.4.6 1.4.3 2.7.7 3.9 1.1 1.2.4 2.1.8 2.9 1.4.8.5 1.4 1.2 1.9 2.1.5.4.8 1.4.8 2.6zm14.1-2.1h-4.7v6.8c0 1-.2 1.7-.7 2.2-.5.5-1.1.8-1.8.8-.8 0-1.4-.2-1.9-.7-.5-.5-.7-1.2-.7-2.2V23.9c0-1.1.3-1.8.8-2.3.5-.5 1.3-.7 2.5-.7h6.5c1.9 0 3.4.1 4.5.4 1 .3 1.9.7 2.7 1.4.8.6 1.3 1.4 1.7 2.3.4.9.6 2 .6 3.1 0 2.5-.8 4.3-2.4 5.6-1.6 1.3-4 2-7.1 2zm-1.3-11.1h-3.4V32h3.4c1.2 0 2.2-.1 3-.4.8-.2 1.4-.6 1.8-1.2.4-.5.6-1.3.6-2.2 0-1.1-.3-1.9-1-2.6-.6-.6-2.1-1-4.4-1zm31.6.1h-11.5v5.9h10.6c.8 0 1.4.2 1.7.5.4.3.6.8.6 1.3s-.2 1-.6 1.3c-.4.3-1 .5-1.8.5h-10.6v6.9h11.9c.8 0 1.4.2 1.8.5.4.4.6.8.6 1.4 0 .6-.2 1-.6 1.4-.4.4-1 .5-1.8.5h-13.9c-1.1 0-1.9-.2-2.4-.7-.5-.5-.7-1.2-.7-2.3v-18c0-.7.1-1.3.3-1.7.2-.4.6-.8 1-1 .5-.2 1.1-.3 1.8-.3h13.5c.8 0 1.4.2 1.8.5.4.3.6.8.6 1.4 0 .6-.2 1-.6 1.4-.3.3-.9.5-1.7.5zm13.7 10h-1.8v7.7c0 1-.2 1.8-.7 2.2-.5.5-1.1.7-1.8.7-.8 0-1.4-.3-1.9-.8-.4-.5-.7-1.2-.7-2.2V23.9c0-1 .2-1.8.7-2.3.5-.5 1.3-.7 2.4-.7h8.3c1.1 0 2.1 0 2.9.1.8.1 1.5.3 2.2.6.8.3 1.5.8 2.1 1.4.6.6 1.1 1.3 1.4 2.1.3.8.5 1.6.5 2.5 0 1.8-.5 3.2-1.6 4.3-1.1 1.1-2.7 1.8-4.8 2.3.9.5 1.8 1.1 2.6 2 .8.9 1.6 1.9 2.2 2.9.6 1 1.2 1.9 1.5 2.7.4.8.5 1.4.5 1.7 0 .3-.1.6-.3.9-.2.3-.5.6-.9.7-.4.2-.8.3-1.3.3-.6 0-1.1-.1-1.4-.4-.4-.3-.7-.6-1-1-.3-.4-.7-1-1.1-1.7l-2-3.3c-.7-1.2-1.4-2.1-2-2.7-.6-.6-1.2-1.1-1.8-1.3-.5-.1-1.3-.3-2.2-.3zm2.9-10.1h-4.7v6.6h4.6c1.2 0 2.3-.1 3.1-.3.8-.2 1.5-.5 1.9-1 .4-.5.7-1.2.7-2 0-.7-.2-1.3-.5-1.8-.4-.5-.8-.9-1.5-1.1-.6-.3-1.8-.4-3.6-.4zm31.7 17.7l-1.2-3h-10.2l-1.2 3.1c-.5 1.2-.9 2-1.2 2.4-.3.4-.9.6-1.6.6-.6 0-1.2-.2-1.7-.7-.5-.4-.7-1-.7-1.5 0-.3.1-.7.2-1 .1-.4.3-.8.6-1.5l6.4-15.6c.2-.4.4-1 .7-1.6.3-.6.5-1.2.8-1.6.3-.4.7-.8 1.2-1 .5-.3 1.1-.4 1.8-.4s1.3.1 1.8.4c.5.3.9.6 1.2 1 .3.4.5.8.7 1.3.2.5.5 1.1.8 1.9l6.6 15.5c.5 1.2.8 2 .8 2.6 0 .6-.2 1.1-.7 1.5-.5.5-1.1.7-1.8.7-.4 0-.7-.1-1-.2-.3-.1-.5-.3-.7-.6-.2-.2-.4-.6-.6-1.1-.6-.4-.8-.8-1-1.2zm-10.1-6.7h7.5l-3.8-9.9-3.7 9.9zm26-12.1l9.8 14.2V23.3c0-.9.2-1.6.6-2.1.4-.5 1-.7 1.7-.7s1.3.2 1.7.7c.4.5.6 1.2.6 2.1v18.9c0 2.1-.9 3.2-2.7 3.2-.5 0-.9-.1-1.2-.2-.4-.1-.7-.3-1-.6-.3-.3-.6-.6-.9-1-.3-.4-.6-.7-.8-1.1l-9.6-14v14.1c0 .9-.2 1.6-.7 2.1-.5.5-1 .7-1.7.7s-1.3-.2-1.7-.7c-.4-.5-.7-1.2-.7-2.1V24.1c0-.8.1-1.4.3-1.9.2-.5.6-.9 1.1-1.2.5-.3 1.1-.5 1.6-.5s.9.1 1.2.2c.3.1.6.3.9.6.2.2.5.5.8.9.1.5.4.9.7 1.3zM275 39.4l13-14.8h-11.1c-.8 0-1.4-.2-1.8-.5-.4-.3-.6-.8-.6-1.3 0-.6.2-1 .6-1.4.4-.3 1-.5 1.8-.5h14.3c1.9 0 2.8.8 2.8 2.5 0 .8-.2 1.4-.5 1.9s-.9 1.2-1.9 2.3l-12.1 13.8h13.3c.8 0 1.4.2 1.8.5.4.3.6.7.6 1.3 0 .6-.2 1-.6 1.4-.4.3-1 .5-1.8.5h-16.4c-1.1 0-1.9-.2-2.5-.7-.6-.5-.8-1.1-.8-1.9 0-.3 0-.5.1-.8.1-.2.2-.4.4-.7.2-.2.4-.5.6-.8.4-.3.6-.5.8-.8zm39.5 2.9l-1.2-3h-10.2l-1.2 3.1c-.5 1.2-.9 2-1.2 2.4-.3.4-.9.6-1.6.6-.6 0-1.2-.2-1.7-.7-.5-.4-.7-1-.7-1.5 0-.3.1-.7.2-1 .1-.4.3-.8.6-1.5l6.4-15.6c.2-.4.4-1 .7-1.6.3-.6.5-1.2.8-1.6.3-.4.7-.8 1.2-1 .5-.3 1.1-.4 1.8-.4s1.3.1 1.8.4c.5.3.9.6 1.2 1 .3.4.5.8.7 1.3.2.5.5 1.1.8 1.9l6.6 15.5c.5 1.2.8 2 .8 2.6 0 .6-.2 1.1-.7 1.5-.5.5-1.1.7-1.8.7-.4 0-.7-.1-1-.2-.3-.1-.5-.3-.7-.6-.2-.2-.4-.6-.6-1.1-.6-.4-.8-.8-1-1.2zm-10.1-6.7h7.5l-3.8-9.9-3.7 9.9z"/></symbol>

  <symbol id="logo-xs" viewBox="0 0 92.1 70"><path fill="#342B84" d="M22 .5c.3-.3.6-.3 1-.4l29.2.2c.9.1 1.4.6 1.9 1.3.1.7.1 1.1 0 1.6-1.9 5.7-3.5 11-5.4 16.7-.2.3-.3.7-.6 1-.5.3-.6.4-1.2.5l-3.1.1c-1.1.2-1.6 1.3-1.7 1.9.4 1.2.7 1.8 1.7 2h9c.7.2 1.2.5 1.8 1.4-.1 1.3.1 1.7-.4 2.9L49.5 44c-.1.3-.4 1.1-.8 1.3-.5.3-.9.5-3 .5l-9.2.2c-1.1 0-2 1.1-2.4 3.1.1 1.1.2 1.4 1.4 2.2l38-.3c1 .1 1.5.5 1.8 1 .3.7.3 1.5.2 1.8l-4.6 14.3c-.2.6-.5 1.1-.8 1.4-.8.5-.8.5-2.6.5H2.2c-.9 0-1.4 0-2.1-1.2-.2-.4-.2-1.2.2-2.3l21.1-65c.1-.2.2-.6.6-1z"/><path fill="#E43022" d="M92 1.2C91.6.6 91.1 0 90.2 0L63.5.1c-.6 0-1.2.2-1.8.6-.4.5-.6 1.1-.8 1.8l-5.1 15.7c-.1.6 0 1.3.3 1.7.3.5.7.8 1.3 1h3.3c.4.2.8.4 1.3 1.1.2.9 0 1.5-.2 2.4l-5.9 18.3c-.3 1.2-.2 1.5 0 2.2.4.5 1 .9 1.7 1l19.1.1c.7-.1.9-.4 1.4-.7.3-.4.4-.6.6-1l13.1-41c.3-.8.3-1.5.2-2.1z"/></symbol>

  <symbol id="logo-footer" viewBox="0 0 92.1 70"><path d="M22 .5c.3-.3.6-.3 1-.4l29.2.2c.9.1 1.4.6 1.9 1.3.1.7.1 1.1 0 1.6-1.9 5.7-3.5 11-5.4 16.7-.2.3-.3.7-.6 1-.5.3-.6.4-1.2.5l-3.1.1c-1.1.2-1.6 1.3-1.7 1.9.4 1.2.7 1.8 1.7 2h9c.7.2 1.2.5 1.8 1.4-.1 1.3.1 1.7-.4 2.9L49.5 44c-.1.3-.4 1.1-.8 1.3-.5.3-.9.5-3 .5l-9.2.2c-1.1 0-2 1.1-2.4 3.1.1 1.1.2 1.4 1.4 2.2l38-.3c1 .1 1.5.5 1.8 1 .3.7.3 1.5.2 1.8l-4.6 14.3c-.2.6-.5 1.1-.8 1.4-.8.5-.8.5-2.6.5H2.2c-.9 0-1.4 0-2.1-1.2-.2-.4-.2-1.2.2-2.3l21.1-65c.1-.2.2-.6.6-1z"/><path d="M92 1.2C91.6.6 91.1 0 90.2 0L63.5.1c-.6 0-1.2.2-1.8.6-.4.5-.6 1.1-.8 1.8l-5.1 15.7c-.1.6 0 1.3.3 1.7.3.5.7.8 1.3 1h3.3c.4.2.8.4 1.3 1.1.2.9 0 1.5-.2 2.4l-5.9 18.3c-.3 1.2-.2 1.5 0 2.2.4.5 1 .9 1.7 1l19.1.1c.7-.1.9-.4 1.4-.7.3-.4.4-.6.6-1l13.1-41c.3-.8.3-1.5.2-2.1z"/></symbol>

  <symbol id="car-icon" viewBox="0 0 49.9 20"><path d="M49.7 6.8c-.4-.1-1-.1-1.5-.1h-1.5l-3 .2L37.9.6l-.2-.2c-.1-.1-.3-.3-.4-.3-.2-.1-.5-.1-.8-.1H20.4c-.1 0-.3.2-.3.3l-7.5 6.5L1.3 9.5c-.2.2-.4.3-.6.5-.1.2-.4.8-.4 1.1L0 16h4.7c0-2.4 2-4.4 4.4-4.4s4.4 2 4.4 4.4h24.7c0-2.4 2-4.4 4.4-4.4 2.4 0 4.4 2 4.4 4.4h2.3l.6-8v-.2c0-.4 0-.9-.2-1zm-7.7.1H14.4l6.4-5.7H37l5 5.7z"/><path d="M42.8 12.1c-2.2 0-4 1.8-4 4s1.8 4 4 4 4-1.8 4-4-1.8-4-4-4zM9.3 12.1c-2.2 0-4 1.8-4 4s1.8 4 4 4 4-1.8 4-4-1.9-4-4-4z"/></symbol>

  <symbol id="bus-icon" viewBox="0 0 40.6 20"><path d="M40.5.1c-.3-.1-.4-.1-.7-.1H7c-.2 0-.5 0-.6.1-.3.2-.4.3-.5.5L.6 9c-.2.3-.4.5-.5 1-.1.5-.1.7-.1 1v6.4h3.6c0-1.6 1.3-2.9 2.9-2.9 1.6 0 2.9 1.3 2.9 2.9H32c0-1.6 1.3-2.9 2.9-2.9 1.6 0 2.9 1.3 2.9 2.9h2.9V.7c-.1-.2-.2-.4-.2-.6zM10.3 9.3l-8.9.6 5.2-8.6h3.7v8zm29.4 0H11.5v-8h28.2v8z"/><circle cx="6.5" cy="17.4" r="2.6"/><circle cx="34.9" cy="17.4" r="2.6"/></symbol>

  <symbol id="truck-icon" viewBox="0 0 63.8 20"><path d="M10.8 5.2h-7c-.4 0-.8.1-1 .2-.4.4-.5.6-.6 1L.4 11.1c-.1.3-.1.3-.2.8-.2.3-.2.5-.2.8v5.9h5.1c0-.2-.1-.4-.1-.6 0-1.2 1-2.1 2.1-2.1 1.2 0 2.1 1 2.1 2.1 0 .2 0 .5-.1.7h14.1c-.1-.2-.1-.4-.1-.7 0-1.2 1-2.1 2.1-2.1 1.2 0 2.1 1 2.1 2.1 0 .2 0 .5-.1.7h2.5v-3.2h-19l.1-10.3zm-3.1 6.3l-6.7.3 2.2-5.7h4.5v5.4z"/><path d="M13.4 0h50.3v15.2H13.4z"/><circle cx="25.3" cy="18.1" r="1.9"/><circle cx="7.2" cy="18.1" r="1.9"/><circle cx="46.8" cy="18.1" r="1.9"/><circle cx="51" cy="18.1" r="1.9"/><circle cx="55.3" cy="18.1" r="1.9"/></symbol>


  <symbol id="grid-view" viewBox="0 0 48 48"><path d="M0 0h12v12H0zM0 36h12v12H0zM0 18h12v12H0zM18 0h12v12H18zM18 36h12v12H18zM18 18h12v12H18zM36 0h12v12H36zM36 36h12v12H36zM36 18h12v12H36z"/></symbol>

  <symbol id="list-view" viewBox="0 0 48 48"><path d="M0 0h48v12H0zM0 36h48v12H0zM0 18h48v12H0z"/></symbol>

  <symbol id="tyre-1" viewBox="0 0 48 48">
    <path d="M36.9 23h-1.3c.5 2 1.4 3.8 1.4 5.9v.1c0 1.2-.4 2.4-.5 3.6-1.1 7.6-5.5 13.2-10.7 14-.2 0-.5.1-.7.1H25c-.2 0-.4 0-.6-.1h-.2c-.1 0-.3-.1-.4-.1-.1 0-.1 0-.2-.1s-.3-.1-.4-.1c-.1 0-.1 0-.2-.1s-.3-.1-.4-.2c0 0-.1 0-.1-.1l-.6-.3h-.1c-.2-.1-.3-.2-.5-.3-.1 0-.1-.1-.1-.1-.1-.1-.3-.2-.4-.3-.1 0-.1-.1-.1-.1-.1-.1-.3-.2-.4-.4l-.1-.1c-.5-.5-1-1-1.5-1.7v-.1c-.1-.2-.3-.4-.4-.6v-.1c-.6-.9-1.1-1.9-1.6-3 0-.1-.2-.1-.3-.2-.2-.3-.6-.7-.6-1.1v-1.1c0-.4-.2-.7-.3-1.1v-.1c-.1-.4-.2-.7-.2-1.1-.1-.4-.1-.8-.2-1.1 0-.1-.1-.1-.1-.2-.1-.4-.2-.7-.2-1.1v-5.5c0-.2 0-.3.1-.4v-.4c0-.1 0-.3.1-.4 0-.1 0-.3.1-.4 0-.1.1-.3.1-.4 0-.1.1-.3.1-.4 0-.1.1-.3.1-.4 0-.1.1-.3.1-.4 0-.1.1-.3.1-.4 0-.1.1-.2.1-.4s.1-.3.1-.4c0-.1.1-.2.1-.3 0-.1.1-.3.1-.4 0-.1.1-.2.1-.3 0-.1.1-.3.1-.4 0-.1.1-.2.1-.3.1-.1.1-.3.2-.4 0-.1.1-.2.1-.3.1-.2.1-.3.2-.4 0-.1.1-.2.1-.3.1-.1.1-.3.2-.4 0-.1.1-.2.1-.2.1-.1.1-.3.2-.4.1-.1.1-.2.1-.2.1-.1.1-.3.2-.4.1-.1.1-.2.1-.2.1-.1.2-.3.2-.4 0-.1.1-.2.1-.2.1-.1.2-.2.2-.3.1-.1.1-.1.1-.2.1-.1.2-.2.2-.3l.2-.2.3-.3c0-.1.1-.1.1-.2l.3-.3.2-.2.3-.3.2-.2.3-.3c.1 0 .1-.1.2-.1.1-.1.2-.2.3-.2.1-.1.1-.1.2-.1.1-.1.2-.1.3-.2.1 0 .1-.1.2-.1.1-.1.2-.1.3-.2.1 0 .1-.1.2-.1.1-.1.2-.1.3-.2.1 0 .1-.1.2-.1.1-.1.2-.1.3-.2.1 0 .1-.1.2-.1.1-.1.2-.1.3-.1.1 0 .1-.1.2-.1s.2-.1.3-.1c.1 0 .1 0 .2-.1.1 0 .2 0 .3-.1h.2c.1 0 .2 0 .3-.1h.1V10s-.4-.1-.6-.1h-8.8c-3.3 0-6.2 1.7-8.6 4.5h.2l4.4-1.2c.2-.1.4 0 .5.1l1.5 1 1.5-1c.2-.1.4-.1.6 0l2.2 1.1c-.3.3-.5.7-.7 1l-1.7-.8-1.6 1.1c-.2.1-.5.1-.7 0l-1.6-1.1-4.1 1.2-1.7.4c-.2.4-.4.7-.7 1.1l.7.5 1.5 1 1.5-1c.2-.1.5-.1.7 0l1.5 1 1.5-1c.2-.1.4-.1.6 0l2.2 1.1c-.2.4-.3.8-.4 1.2l-2-1-1.6 1.1c-.2.1-.5.1-.7 0l-1.5-1-1.5 1c-.2.1-.5.1-.7 0l-1.9-1.3-.5-.4c-.9 1.9-1.6 4-1.9 6.3l.5-.5 1.8-2c.1-.1.3-.2.5-.2s.3.1.4.2l1.5 1.4 1.5-1.4c.2-.3.6-.3.9 0l1.5 1.4 1.5-1.4c.2-.3.6-.3.9 0l.8.8-.3 1.5c-.1 0-.1-.1-.2-.1l-.8-.8-1.5 1.4c-.2.3-.6.3-.9 0l-1.5-1.4-1.5 1.4c-.2.3-.6.3-.9 0l-1.4-1.4-1.4 1.4-1.7 1.6v.6l.9.5 2.1 1L7 27.2c.2-.3.6-.3.9 0l1.5 1.4 1.5-1.4c.2-.2.5-.3.8-.1l2.2 1.3v1.5l-2.4-1.5-1.6 1.5c-.2.3-.6.3-.9 0l-1.5-1.4L6 29.9c-.2.2-.5.2-.7.1l-2.8-1-.5-.2v.3c0 2.2.4 4.3.9 6.3l2-2.8c.1-.2.3-.3.5-.3s.4.1.5.2l1.5 1.4 1.5-1.4c.2-.3.6-.3.9 0l1.5 1.4 1.5-1.4c.2-.3.6-.3.9 0l.4.4.3 1.9c-.1 0-.3-.1-.4-.2l-.8-.8-1.5 1.4c-.2.3-.6.3-.9 0l-1.5-1.4-1.5 1.4c-.2.3-.6.3-.9 0l-1.4-1.4-2.1 3.1c.3.8.6 1.6.9 2.3l.7-.6 1.2-1.2c.2-.3.6-.3.9 0l1.5 1.4 1.5-1.4c.2-.3.6-.3.9 0l1.4 1.4.8-1.3c.2-.3.5-.4.8-.2l1.1.6c.2.6.4 1.2.7 1.7l-1.8-.9-1 1.4c-.1.2-.3.3-.5.3s-.4-.1-.5-.2l-1.5-1.4L9 40.2c-.2.3-.6.3-.9 0l-1.5-1.4-.8.8-.8.8c.7 1.4 1.6 2.6 2.5 3.7l.8-.4 1.9-1.3c.2-.1.5-.1.7 0l1.5 1 1.5-1c.2-.1.5-.1.7 0l1.5 1 1.1-.8c.2.4.5.7.7 1l-1.5 1c-.2.1-.5.1-.7 0l-1.5-1-1.5 1c-.2.1-.5.1-.7 0l-1.5-1-1.5 1h-.1l-.4.4c2.1 1.9 4.5 3 7.1 3h9.6c.3 0 .6-.1 1-.2 5.6-1 10.3-7 11.4-15.1.2-1.2.4-2.5.4-3.7v-.1c0-2.1-.6-3.9-1.1-5.9z"/>
    <path d="M19.8 21.4c0-.1-.1-.1 0 0l-.3-.4c-.9 2.3-1.4 5-1.4 8.1 0 3 .5 5.8 1.4 8l.3-.3c1.3-1.3 2.1-4.4 2.1-7.7 0-3.4-.9-6.5-2.1-7.7z"/>
    <path d="M33.3 29.2C33.3 37 30 43 25.7 43c-2.3 0-4.3-1.8-5.7-4.6l.6-.7c1.5-1.5 2.5-4.9 2.5-8.6 0-3.7-1-7.1-2.5-8.6l-.6-.8c1.3-2.5 3-4.2 5-4.5V23h7.5c.5 2 .8 3.9.8 6.2z"/>
    <path d="M46 2.6L44.3 1c-.2-.2-.4-.2-.6 0-.2.2-.2.4 0 .6L45.1 3l-1.4 1.4c-.1.1-.1.2-.1.3V6c0 .9.8 1.7 1.7 1.7v7.2c0 .2-.2.4-.4.4s-.4-.2-.4-.4v-.8c0-.7-.6-1.3-1.3-1.3h-.4V1.7C42.7.8 42 0 41.1 0h-8.4c-1 0-1.7.8-1.7 1.7v15.2c-.9 0-1.7.8-1.7 1.7v1.3c0 .2.2.4.4.4H44c.2 0 .4-.2.4-.4v-1.3c0-.9-.8-1.7-1.7-1.7v-3.4h.4c.2 0 .4.2.4.4v.8c0 .7.6 1.3 1.3 1.3s1.3-.6 1.3-1.3V2.9c0-.1 0-.2-.1-.3zm-13.4-.5c0-.2.2-.4.4-.4h7.6c.2 0 .4.2.4.4v5.1c0 .2-.2.4-.4.4H33c-.2 0-.4-.2-.4-.4V2.1z"/>
  </symbol>

  <symbol id="tyre-2" viewBox="0 0 48 48">
    <path d="M35.7 23h-1.3c.5 2 .6 3.5.6 5.7v.1c0 1.2 0 2.4-.1 3.5-1 7.5-5.2 13.1-10.3 13.8-.2 0-.4.1-.5.1-.2 0-.4 0-.5-.1h-.2c-.1 0-.3-.1-.4-.1h-.2c-.1 0-.3-.1-.4-.1-.1 0-.1 0-.2-.1-.1 0-.3-.1-.4-.2h-.1c-.2-.1-.4-.2-.5-.3h-.1c-.1-.1-.3-.2-.5-.3l-.1-.1c-.1-.1-.3-.2-.4-.3l-.1-.1c-.1-.1-.3-.2-.4-.4 0 0-.1 0-.1-.1-.5-.5-1-1-1.4-1.6v-.1c-.1-.2-.3-.4-.4-.6-.6-.9-1.1-1.9-1.5-2.9 0-.1-.2-.1-.3-.2-.1-.3-.6-.7-.6-1v-1.1c0-.4-.2-.7-.3-1.1v-.1c-.1-.4-.2-.7-.2-1.1-.1-.4-.1-.8-.2-1.1 0-.1-.1-.1-.1-.2 0-.4-.2-.7-.2-1.1v-5.5c0-.1 0-.3.1-.4v-.4c0-.1 0-.3.1-.4v-.4c0-.1 0-.3.1-.4 0-.1 0-.3.1-.4 0-.1 0-.3.1-.4 0-.1 0-.3.1-.4 0-.1.1-.3.1-.4 0-.1 0-.2.1-.3 0-.1.1-.3.1-.4 0-.1.1-.2.1-.3 0-.1.1-.3.1-.4 0-.1.1-.2.1-.3 0-.1.1-.3.1-.4 0-.1.1-.2.1-.3 0-.1.1-.3.1-.4 0-.1.1-.2.1-.3 0-.1.1-.3.2-.4 0-.1.1-.2.1-.2.1-.1.1-.3.2-.4 0-.1.1-.2.1-.2.1-.1.1-.3.2-.4 0-.1.1-.2.1-.2.1-.1.1-.2.2-.4 0-.1.1-.2.1-.2.1-.1.1-.2.2-.4 0-.1.1-.1.1-.2.1-.1.1-.2.2-.3 0-.1.1-.1.1-.2.1-.1.2-.2.2-.3 0-.1.1-.1.1-.2.1-.1.2-.2.2-.3 0-.1.1-.1.1-.2l.3-.3c0-.1.1-.1.1-.2l.3-.3.1-.1.3-.3c.1 0 .1-.1.2-.1.1-.1.2-.2.3-.2 0 0 .1-.1.2-.1.1-.1.2-.1.3-.2.1 0 .1-.1.2-.1.1-.1.2-.1.3-.2.1 0 .1-.1.2-.1.1-.1.2-.1.3-.2.1 0 .1-.1.2-.1s.2-.1.3-.1c.1 0 .1 0 .2-.1.1 0 .2-.1.3-.1.1 0 .1 0 .2-.1.1 0 .2-.1.3-.1.1 0 .1 0 .2-.1.1 0 .2 0 .3-.1h.7v-1.3s-.4.9-.7.9h-8.7c-3.2 0-6.2 1.2-8.4 4l.2-.3 4.3-1.3c.2 0 .4-.1.5 0l1.5 1 1.5-1c.2-.1.4-.1.6 0l2.2 1.1c-.3.3-.5.7-.7 1l-1.7-.8-1.6 1c-.2.1-.5.1-.7 0l-1.6-1.1-4.1 1.2-1.7-.2c-.2.3-.4.7-.6 1.1l.6.5 1.5 1 1.5-1c.2-.1.5-.1.7 0l1.5 1 1.5-1c.2-.1.4-.1.6 0l2.2 1.1c-.1.4-.3.8-.4 1.2l-2-1-1.6 1c-.2.1-.5.1-.7 0l-1.5-1-1.5 1c-.2.1-.5.1-.7 0l-1.9-1.2-.5-.4c-.9 1.9-1.5 3.9-1.9 6.2l.6-.6 1.8-1.9c.1-.1.3-.1.4-.1.2 0 .4 0 .5.1l1.4 1.4 1.4-1.4c.2-.2.6-.2.9 0l1.4 1.4 1.4-1.4c.2-.2.6-.2.9 0l.8.8-.3 1.4-.1-.1-.8-.8-1.4 1.4c-.2.2-.6.2-.9 0l-1.4-1.4L7 24.8c-.2.2-.6.2-.9 0l-1.4-1.4-1.4 1.4-1.6 1.6v.6l.9.5 2 1L6.2 27c.2-.2.6-.2.9 0l1.4 1.4L9.9 27c.2-.2.5-.2.8-.1l2.2 1.3v1.5l-2.4-1.4L9 29.8c-.2.2-.6.2-.9 0l-1.4-1.4-1.4 1.4c-.2.2-.5.2-.7.1l-2.3-1.2-.3-.2v.3c0 2.2 0 4.3.5 6.2l1.8-2.8c.1-.1.2-.2.4-.3.2 0 .3 0 .5.2l1.4 1.4L8 32.1c.2-.2.6-.2.9 0l1.4 1.4 1.4-1.4c.2-.2.6-.2.9 0l.4.4.3 1.9c-.1 0-.3-.1-.4-.2l-.8-.8-1.4 1.4c-.2.2-.6.2-.9 0l-1.4-1.4L7 34.8c-.2.2-.6.2-.9 0l-1.3-1.3-2 3.1c.3.8.5 1.6.9 2.3l.6-.6 1.2-1.2c.2-.2.6-.2.9 0l1.4 1.4 1.4-1.4c.2-.2.6-.2.9 0l1.3 1.3.8-1.2c.2-.3.5-.3.8-.2l1.1.5c.2.6.4 1.2.7 1.7l-1.8-.9-1 1.5c-.1.1-.3.2-.5.3-.2 0-.4 0-.5-.2l-1.4-1.4-1.4 1.4c-.2.2-.6.2-.9 0l-1.4-1.4-.8.8-1 .7c.7 1.4 1.6 2.6 2.5 3.6l.8-.4L9.3 42c.2-.1.5-.1.7 0l1.5 1 1.5-1c.2-.1.5-.1.7 0l1.5 1 1.1-.7.7 1-1.5 1c-.2.1-.5.1-.7 0l-1.5-1-1.5 1c-.2.1-.5.1-.7 0l-1.5-1-1.5 1H8l-.5.5c2 1.9 4.5 3.2 7 3.2h9.4c.3 0 .6-.3 1-.4 5.5-1 9.8-7.1 10.9-15 .1-1.2 0-2.6 0-3.8v-.1c.2-2.1.4-3.7-.1-5.7z"/>
    <path d="M18.8 21.2c-.1 0-.1 0 0 0l-.3-.4c-.9 2.2-1.4 5-1.4 8s.5 5.7 1.3 7.9l.3-.3c1.3-1.3 2.1-4.3 2.1-7.6.1-3.3-.8-6.4-2-7.6z"/>
    <path d="M32.1 29c0 7.7-3.3 13.6-7.5 13.6-2.2 0-4.2-1.8-5.6-4.6l.6-.7c1.5-1.5 2.5-4.8 2.5-8.5s-1-7-2.4-8.5l-.6-.8c1.2-2.5 2.9-4.1 4.9-4.4V23h7.3c.5 2 .8 3.8.8 6zM43.2 2c-.3 0-.5.1-.8.2C42 1.2 41 .6 39.9.6c-.7 0-1.4.3-1.9.7-.8-.7-2-1.2-3.2-1.2-2.6 0-4.7 2-4.7 4.4-1 .5-1.6 1.4-1.6 2.6 0 1.3.9 2.4 2.1 2.7l13.1.1c1.5-.1 2.7-1.3 2.7-2.8 0-1.1-.6-2-1.5-2.5.1-.2.1-.5.1-.8 0-1-.8-1.8-1.8-1.8zM32.9 14.6c.3-.6.4-3.5.4-3.5s-2.3 1.7-2.7 2.3c-.3.6-.1 1.4.6 1.8.6.2 1.4 0 1.7-.6zm4.9 0c.3-.6.4-3.5.4-3.5s-2.3 1.7-2.7 2.3c-.3.6-.1 1.4.6 1.8.6.2 1.3 0 1.7-.6zm3.4.5c.6.3 1.4.1 1.8-.6.3-.6.4-3.5.4-3.5s-2.3 1.7-2.7 2.3c-.4.7-.1 1.5.5 1.8zm-8.9 4.8c.6.3 1.4.1 1.8-.6.3-.6.4-3.5.4-3.5s-2.3 1.7-2.7 2.3c-.4.7-.1 1.5.5 1.8zm4.8 0c.6.3 1.4.1 1.8-.6.3-.6.4-3.5.4-3.5s-2.3 1.7-2.7 2.3c-.4.7-.1 1.5.5 1.8zm1.3 24.2c-.3-1.1-1.5-1.7-2.6-1.3-1.1.3-4.4 3.6-4.4 3.6s4.6.7 5.7.4c1-.4 1.6-1.6 1.3-2.7zm4.4-5c-.3-1.1-1.5-1.7-2.6-1.3-1.1.3-4.4 3.6-4.4 3.6s4.6.7 5.7.4c1.1-.4 1.7-1.6 1.3-2.7zm0 0"/>
  </symbol>

  <symbol id="tyre-3" viewBox="0 0 48 48">
    <path d="M36.3 21H35c.5 2 1 4.4 1 6.7v.1c0 1.3-.2 2.5-.4 3.7-1.1 8-5.7 13.9-11.1 14.7-.2 0-.4.1-.6.1h-.1c-.2 0-.4 0-.6-.1H23c-.1 0-.3-.1-.4-.1-.1 0-.1 0-.2-.1H22c-.1 0-.1 0-.2-.1s-.3-.1-.5-.2c0 0-.1 0-.1-.1l-.6-.3h-.1c-.2-.1-.3-.2-.5-.3-.1 0-.1-.1-.1-.1-.1-.1-.3-.2-.4-.3-.1 0-.1-.1-.1-.1l-.4-.4-.1-.1c-.5-.5-1-1.1-1.5-1.7v-.1c-.1-.2-.3-.4-.4-.6v-.1c-.6-.9-1.2-2-1.6-3.1 0-.1.1-.1.1-.2-.4-.5-.5-.8-.5-1.2v-1.2c0-.4-.6-.8-.7-1.2l-.2-.1c-.1-.4-.3-.8-.3-1.2h-.1c-.1-.4-.2-.8-.2-1.2 0-.1-.2-.1-.2-.2-.1-.4-.3-.8-.3-1.2v-.1c0-.4.1-.8.1-1.2 0-.1.1-.2.1-.3v-4c0-.2 0-.3.1-.5v-.4c0-.1 0-.3.1-.4 0-.1 0-.3.1-.4 0-.1.1-.3.1-.4 0-.1.1-.3.1-.4 0-.1.1-.3.1-.4 0-.1.1-.3.1-.4 0-.1.1-.3.1-.4 0-.1.1-.3.1-.4 0-.2.1-.3.1-.5 0-.1.1-.2.1-.4 0-.1.1-.3.1-.4 0-.1.1-.2.1-.3 0-.1.1-.3.1-.4 0-.1.1-.2.1-.3.1-.1.1-.3.2-.4 0-.1.1-.2.1-.3.1-.2.1-.3.2-.5 0-.1.1-.2.1-.3.1-.1.1-.3.2-.4 0-.1.1-.2.1-.3.1-.1.1-.3.2-.4.1-.1.1-.2.1-.3.1-.1.1-.3.2-.4.1-.1.1-.2.1-.2.1-.1.2-.3.2-.4 0-.1.1-.2.1-.2.1-.1.2-.2.2-.4.1-.1.1-.1.1-.2.1-.1.2-.2.3-.4l.2-.2.3-.3c0-.1.1-.1.1-.2l.3-.3.2-.2.3-.3.2-.2.3-.3c.1 0 .1-.1.2-.1l.3-.3c.1-.1.1-.1.2-.1.1-.1.2-.1.3-.2.1 0 .1-.1.2-.1.1-.1.2-.1.3-.2.1 0 .1-.1.2-.1.1-.1.2-.1.3-.2.1 0 .1-.1.2-.1.1-.1.2-.1.3-.2.1 0 .1-.1.2-.1.1-.1.2-.1.3-.1.1 0 .1-.1.2-.1s.2-.1.3-.1c.1 0 .1 0 .2-.1.1 0 .2 0 .3-.1h.2c.1 0 .3 0 .4-.1h.2V8H13.7c-3.4 0-6.6 1.7-9 4.7l.2-.1 4.6-1.3c.2-.1.4 0 .6.1l1.6 1.1 1.6-1.1c.2-.1.5-.1.7 0l2.3 1.2-.8 1.1-1.8-.9-1.7 1.1c-.2.1-.5.1-.7 0l-1.7-1.2-4.4 1.2-1.8.4c-.2.4-.5.8-.7 1.2l1 .5 1.6 1 1.6-1c.2-.1.5-.1.7 0l1.6 1.1 1.6-1.1c.2-.1.5-.1.7 0l2.3 1.2c-.2.4-.3.8-.5 1.2l-2.1-1.1-1.7 1.1c-.2.1-.5.1-.7 0l-1.6-1.1-1.6 1.1c-.2.1-.5.1-.7 0l-2-1.3-.5-.5c-.9 2-1.6 4.2-2 6.6l.5-.5 1.9-2c.1-.1.3-.2.5-.2s.3.1.5.2l1.5 1.5 1.5-1.5c.3-.3.7-.3.9 0l1.5 1.5 1.5-1.5c.3-.3.7-.3.9 0l.8.8-.3 1.5c-.1 0-.1-.1-.2-.1l-.9-.8-1.5 1.5c-.3.3-.7.3-.9 0l-1.5-1.5-1.5 1.5c-.3.3-.7.3-.9 0l-1.5-1.5-1.5 1.5L0 25.3v.7l1 .6 2.2 1.1L4.8 26c.3-.3.7-.3.9 0l1.5 1.5L8.8 26c.2-.2.5-.3.8-.1l2.3 1.4v1.5l-2.6-1.5L7.7 29c-.3.3-.7.3-.9 0l-1.5-1.5L3.7 29c-.2.2-.5.3-.8.1L.3 27.8l-.3-.3v.3c0 2.3.3 4.5.8 6.6l2-3c.1-.2.3-.3.5-.3s.4.1.5.2l1.5 1.5 1.5-1.5c.3-.3.7-.3.9 0l1.5 1.5 1.5-1.5c.3-.3.7-.3.9 0l.5.4.3 2c-.1 0-.3-.1-.4-.2l-.9-.8-1.5 1.5c-.3.3-.7.3-.9 0l-1.5-1.5-1.5 1.5c-.3.3-.7.3-.9 0l-1.4-1.4-2.2 3.3c.3.8.6 1.7.9 2.4l.8-.5 1.3-1.3c.3-.3.7-.3.9 0l1.5 1.5 1.5-1.5c.3-.3.7-.3.9 0l1.4 1.4.9-1.3c.2-.3.5-.4.8-.2l1.2.6c.2.6.5 1.2.7 1.8l-1.9-1-1 1.5c-.1.2-.3.3-.5.3s-.4-.1-.5-.2l-1.5-1.5-1.5 1.5c-.3.3-.7.3-.9 0l-1.5-1.5-.9.8-1 .9c.8 1.4 1.7 2.7 2.7 3.8l.8-.4 2-1.3c.2-.1.5-.1.7 0l1.6 1.1 1.6-1.1c.2-.1.5-.1.7 0l1.6 1.1 1.2-.8.8 1.1-1.6 1.1c-.2.1-.5.1-.7 0l-1.6-1.1-1.6 1.1c-.2.1-.5.1-.7 0l-1.6-1.1-1.7 1h-.1l-.5.4c2.2 2 4.7 3.3 7.5 3.3H24c.3 0 .7-.2 1-.3 5.9-1.1 10.6-7.5 11.8-15.9.2-1.3.2-2.7.2-4v-.1c0-2.3-.2-4.7-.7-6.7z"/>
    <path d="M18.3 19.8c0-.1 0-.1 0 0l-.3-.4c-.9 2.4-1.4 5.3-1.4 8.5s.5 6.1 1.4 8.4l.3-.3c1.4-1.3 2.3-4.6 2.3-8.1-.1-3.6-1-6.8-2.3-8.1z"/>
    <path d="M32.5 27.7c0 8.2-3.5 14.6-8 14.6-2.4 0-4.5-1.8-6-4.8l.7-.7c1.6-1.6 2.6-5.1 2.6-9 0-3.9-1-7.4-2.6-9l-.5-.8c1.3-2.6 2.3-4.4 5.3-4.7V21h7.6c.6 2 .9 4.3.9 6.7zM36.2.3c-.2-.1-.4 0-.5.1l-5 4.7h-3.4c-.3 0-.5.2-.5.5v6.8c0 .3.2.5.5.5h3.4l5 4.7c.1.1.2.1.3.1h.2c.2-.1.3-.3.3-.4V.7c-.1-.2-.2-.4-.3-.4zm2.5 5.9l-.7.7c-.2.2-.2.4-.1.6.3.4.5.9.5 1.4s-.2 1-.5 1.4c-.1.2-.1.4.1.6l.7.7c.2.2.6.2.7-.1.6-.7.9-1.7.9-2.6 0-1-.3-1.9-.9-2.6-.2-.3-.5-.3-.7-.1zm3.4-2.7c-.2-.2-.5-.2-.7 0l-.7.7c-.2.2-.2.5 0 .7.9 1.1 1.5 2.5 1.5 4.1s-.6 3-1.5 4.1c-.2.2-.2.5 0 .7l.7.7c.2.2.5.2.7 0 1.3-1.4 2.1-3.4 2.1-5.4 0-2.3-.8-4.2-2.1-5.6z"/>
    <path d="M44.8.7c-.2-.2-.5-.2-.7 0l-.7.7c-.2.2-.2.5 0 .7 1.6 1.8 2.7 4.2 2.7 6.8s-1 5-2.7 6.8c-.2.2-.2.5 0 .7l.7.7c.2.2.5.2.7 0 2-2.2 3.2-5 3.2-8.2 0-3.1-1.2-6-3.2-8.2z"/>
  </symbol>























</svg>