<svg xmlns="http://www.w3.org/2000/svg">

  <symbol id="ru" viewBox="0 0 512 512"><path fill="#F5F5F5" d="M512 200.1H0v-103c0-4.87 3.95-8.82 8.83-8.82h494.34c4.88 0 8.83 3.95 8.83 8.82v103z"/><path fill="#FF4B55" d="M503.17 423.73H8.83c-4.88 0-8.83-3.96-8.83-8.83v-103h512v103c0 4.87-3.95 8.83-8.83 8.83z"/><path fill="#41479B" d="M0 200.1h512v111.8H0z"/></symbol>
  
  <symbol id="md" viewBox="0 0 512 512"><path fill="#41479B" d="M170.67 423.72H8.83c-4.88 0-8.83-3.95-8.83-8.83V97.1c0-4.87 3.95-8.83 8.83-8.83h161.84v335.45z"/><path fill="#FFE15A" d="M170.67 88.28h170.67v335.45H170.67z"/><path fill="#FF4B55" d="M503.17 423.72H341.33V88.27h161.84c4.88 0 8.83 3.96 8.83 8.83v317.8c0 4.87-3.95 8.82-8.83 8.82z"/></symbol>

  <symbol id="logo" viewBox="0 0 320 70"><g fill-rule="evenodd" clip-rule="evenodd"><path fill="#342B84" d="M22 .5c.3-.3.6-.3 1-.4l29.2.2c.9.1 1.4.6 1.9 1.3.1.7.1 1.1 0 1.6-1.9 5.7-3.5 11-5.4 16.7-.2.3-.3.7-.6 1-.5.3-.6.4-1.2.5l-3.1.1c-1.1.2-1.6 1.3-1.7 1.9.4 1.2.7 1.8 1.7 2h9c.7.2 1.2.5 1.8 1.4-.1 1.3.1 1.7-.4 2.9L49.5 44c-.1.3-.4 1.1-.8 1.3-.5.3-.9.5-3 .5l-9.2.2c-1.1 0-2 1.1-2.4 3.1.1 1.1.2 1.4 1.4 2.2l38-.3c1 .1 1.5.5 1.8 1 .3.7.3 1.5.2 1.8l-4.6 14.3c-.2.6-.5 1.1-.8 1.4-.8.5-.8.5-2.6.5H2.2c-.9 0-1.4 0-2.1-1.2-.2-.4-.2-1.2.2-2.3l21.1-65c.1-.2.2-.6.6-1z"/><path fill="#E43022" d="M92 1.2C91.6.6 91.1 0 90.2 0L63.5.1c-.6 0-1.2.2-1.8.6-.4.5-.6 1.1-.8 1.8l-5.1 15.7c-.1.6 0 1.3.3 1.7.3.5.7.8 1.3 1h3.3c.4.2.8.4 1.3 1.1.2.9 0 1.5-.2 2.4l-5.9 18.3c-.3 1.2-.2 1.5 0 2.2.4.5 1 .9 1.7 1l19.1.1c.7-.1.9-.4 1.4-.7.3-.4.4-.6.6-1l13.1-41c.3-.8.3-1.5.2-2.1z"/></g><path class="togglable" fill="#342B84" d="M120.9 24.7h-11.5v5.9H120c.8 0 1.4.2 1.7.5.4.3.6.8.6 1.3s-.2 1-.6 1.3c-.4.3-1 .5-1.8.5h-10.6v6.9h11.9c.8 0 1.4.2 1.8.5.4.4.6.8.6 1.4 0 .6-.2 1-.6 1.4-.4.4-1 .5-1.8.5h-13.9c-1.1 0-1.9-.2-2.4-.7-.5-.5-.7-1.2-.7-2.3v-18c0-.7.1-1.3.3-1.7.2-.4.6-.8 1-1 .5-.2 1.1-.3 1.8-.3h13.5c.8 0 1.4.2 1.8.5.4.3.6.8.6 1.4 0 .6-.2 1-.6 1.4-.3.3-.9.5-1.7.5zM147 37.8c0 1.5-.4 2.8-1.2 3.9-.8 1.2-1.9 2.1-3.4 2.7-1.5.7-3.3 1-5.4 1-2.5 0-4.5-.4-6.2-1.3-1.1-.6-2.1-1.5-2.8-2.6-.7-1.1-1.1-2.1-1.1-3.1 0-.6.2-1.1.6-1.5.4-.4 1-.6 1.6-.6.5 0 1 .2 1.4.5.4.3.7.8 1 1.5.3.8.7 1.4 1 1.9.4.5.9.9 1.6 1.3.7.3 1.6.5 2.7.5 1.5 0 2.7-.3 3.7-1 .9-.7 1.4-1.5 1.4-2.5 0-.8-.3-1.5-.8-1.9-.5-.5-1.2-.9-2-1.1-.8-.3-1.9-.5-3.2-.8-1.8-.4-3.3-.9-4.5-1.4-1.2-.5-2.2-1.3-2.9-2.2-.7-.9-1.1-2.1-1.1-3.5 0-1.3.4-2.5 1.1-3.5.8-1 1.9-1.8 3.3-2.4 1.4-.6 3.1-.8 5.1-.8 1.5 0 2.9.2 4 .5 1.1.4 2.1.9 2.8 1.5.7.6 1.3 1.2 1.6 1.9.3.7.5 1.3.5 2 0 .6-.2 1.1-.6 1.6-.4.5-1 .7-1.6.7-.6 0-1-.1-1.3-.4-.3-.3-.6-.7-1-1.4-.5-.9-1-1.6-1.7-2.1-.6-.5-1.7-.8-3.1-.8-1.3 0-2.4.3-3.2.8-.8.6-1.2 1.2-1.2 2 0 .5.1.9.4 1.3.3.3.7.7 1.1.9.5.3 1 .4 1.5.6.5.1 1.3.3 2.4.6 1.4.3 2.7.7 3.9 1.1 1.2.4 2.1.8 2.9 1.4.8.5 1.4 1.2 1.9 2.1.5.4.8 1.4.8 2.6zm14.1-2.1h-4.7v6.8c0 1-.2 1.7-.7 2.2-.5.5-1.1.8-1.8.8-.8 0-1.4-.2-1.9-.7-.5-.5-.7-1.2-.7-2.2V23.9c0-1.1.3-1.8.8-2.3.5-.5 1.3-.7 2.5-.7h6.5c1.9 0 3.4.1 4.5.4 1 .3 1.9.7 2.7 1.4.8.6 1.3 1.4 1.7 2.3.4.9.6 2 .6 3.1 0 2.5-.8 4.3-2.4 5.6-1.6 1.3-4 2-7.1 2zm-1.3-11.1h-3.4V32h3.4c1.2 0 2.2-.1 3-.4.8-.2 1.4-.6 1.8-1.2.4-.5.6-1.3.6-2.2 0-1.1-.3-1.9-1-2.6-.6-.6-2.1-1-4.4-1zm31.6.1h-11.5v5.9h10.6c.8 0 1.4.2 1.7.5.4.3.6.8.6 1.3s-.2 1-.6 1.3c-.4.3-1 .5-1.8.5h-10.6v6.9h11.9c.8 0 1.4.2 1.8.5.4.4.6.8.6 1.4 0 .6-.2 1-.6 1.4-.4.4-1 .5-1.8.5h-13.9c-1.1 0-1.9-.2-2.4-.7-.5-.5-.7-1.2-.7-2.3v-18c0-.7.1-1.3.3-1.7.2-.4.6-.8 1-1 .5-.2 1.1-.3 1.8-.3h13.5c.8 0 1.4.2 1.8.5.4.3.6.8.6 1.4 0 .6-.2 1-.6 1.4-.3.3-.9.5-1.7.5zm13.7 10h-1.8v7.7c0 1-.2 1.8-.7 2.2-.5.5-1.1.7-1.8.7-.8 0-1.4-.3-1.9-.8-.4-.5-.7-1.2-.7-2.2V23.9c0-1 .2-1.8.7-2.3.5-.5 1.3-.7 2.4-.7h8.3c1.1 0 2.1 0 2.9.1.8.1 1.5.3 2.2.6.8.3 1.5.8 2.1 1.4.6.6 1.1 1.3 1.4 2.1.3.8.5 1.6.5 2.5 0 1.8-.5 3.2-1.6 4.3-1.1 1.1-2.7 1.8-4.8 2.3.9.5 1.8 1.1 2.6 2 .8.9 1.6 1.9 2.2 2.9.6 1 1.2 1.9 1.5 2.7.4.8.5 1.4.5 1.7 0 .3-.1.6-.3.9-.2.3-.5.6-.9.7-.4.2-.8.3-1.3.3-.6 0-1.1-.1-1.4-.4-.4-.3-.7-.6-1-1-.3-.4-.7-1-1.1-1.7l-2-3.3c-.7-1.2-1.4-2.1-2-2.7-.6-.6-1.2-1.1-1.8-1.3-.5-.1-1.3-.3-2.2-.3zm2.9-10.1h-4.7v6.6h4.6c1.2 0 2.3-.1 3.1-.3.8-.2 1.5-.5 1.9-1 .4-.5.7-1.2.7-2 0-.7-.2-1.3-.5-1.8-.4-.5-.8-.9-1.5-1.1-.6-.3-1.8-.4-3.6-.4zm31.7 17.7l-1.2-3h-10.2l-1.2 3.1c-.5 1.2-.9 2-1.2 2.4-.3.4-.9.6-1.6.6-.6 0-1.2-.2-1.7-.7-.5-.4-.7-1-.7-1.5 0-.3.1-.7.2-1 .1-.4.3-.8.6-1.5l6.4-15.6c.2-.4.4-1 .7-1.6.3-.6.5-1.2.8-1.6.3-.4.7-.8 1.2-1 .5-.3 1.1-.4 1.8-.4s1.3.1 1.8.4c.5.3.9.6 1.2 1 .3.4.5.8.7 1.3.2.5.5 1.1.8 1.9l6.6 15.5c.5 1.2.8 2 .8 2.6 0 .6-.2 1.1-.7 1.5-.5.5-1.1.7-1.8.7-.4 0-.7-.1-1-.2-.3-.1-.5-.3-.7-.6-.2-.2-.4-.6-.6-1.1-.6-.4-.8-.8-1-1.2zm-10.1-6.7h7.5l-3.8-9.9-3.7 9.9zm26-12.1l9.8 14.2V23.3c0-.9.2-1.6.6-2.1.4-.5 1-.7 1.7-.7s1.3.2 1.7.7c.4.5.6 1.2.6 2.1v18.9c0 2.1-.9 3.2-2.7 3.2-.5 0-.9-.1-1.2-.2-.4-.1-.7-.3-1-.6-.3-.3-.6-.6-.9-1-.3-.4-.6-.7-.8-1.1l-9.6-14v14.1c0 .9-.2 1.6-.7 2.1-.5.5-1 .7-1.7.7s-1.3-.2-1.7-.7c-.4-.5-.7-1.2-.7-2.1V24.1c0-.8.1-1.4.3-1.9.2-.5.6-.9 1.1-1.2.5-.3 1.1-.5 1.6-.5s.9.1 1.2.2c.3.1.6.3.9.6.2.2.5.5.8.9.1.5.4.9.7 1.3zM275 39.4l13-14.8h-11.1c-.8 0-1.4-.2-1.8-.5-.4-.3-.6-.8-.6-1.3 0-.6.2-1 .6-1.4.4-.3 1-.5 1.8-.5h14.3c1.9 0 2.8.8 2.8 2.5 0 .8-.2 1.4-.5 1.9s-.9 1.2-1.9 2.3l-12.1 13.8h13.3c.8 0 1.4.2 1.8.5.4.3.6.7.6 1.3 0 .6-.2 1-.6 1.4-.4.3-1 .5-1.8.5h-16.4c-1.1 0-1.9-.2-2.5-.7-.6-.5-.8-1.1-.8-1.9 0-.3 0-.5.1-.8.1-.2.2-.4.4-.7.2-.2.4-.5.6-.8.4-.3.6-.5.8-.8zm39.5 2.9l-1.2-3h-10.2l-1.2 3.1c-.5 1.2-.9 2-1.2 2.4-.3.4-.9.6-1.6.6-.6 0-1.2-.2-1.7-.7-.5-.4-.7-1-.7-1.5 0-.3.1-.7.2-1 .1-.4.3-.8.6-1.5l6.4-15.6c.2-.4.4-1 .7-1.6.3-.6.5-1.2.8-1.6.3-.4.7-.8 1.2-1 .5-.3 1.1-.4 1.8-.4s1.3.1 1.8.4c.5.3.9.6 1.2 1 .3.4.5.8.7 1.3.2.5.5 1.1.8 1.9l6.6 15.5c.5 1.2.8 2 .8 2.6 0 .6-.2 1.1-.7 1.5-.5.5-1.1.7-1.8.7-.4 0-.7-.1-1-.2-.3-.1-.5-.3-.7-.6-.2-.2-.4-.6-.6-1.1-.6-.4-.8-.8-1-1.2zm-10.1-6.7h7.5l-3.8-9.9-3.7 9.9z"/></symbol>

  <symbol id="logo-xs" viewBox="0 0 92.1 70"><path fill="#342B84" d="M22 .5c.3-.3.6-.3 1-.4l29.2.2c.9.1 1.4.6 1.9 1.3.1.7.1 1.1 0 1.6-1.9 5.7-3.5 11-5.4 16.7-.2.3-.3.7-.6 1-.5.3-.6.4-1.2.5l-3.1.1c-1.1.2-1.6 1.3-1.7 1.9.4 1.2.7 1.8 1.7 2h9c.7.2 1.2.5 1.8 1.4-.1 1.3.1 1.7-.4 2.9L49.5 44c-.1.3-.4 1.1-.8 1.3-.5.3-.9.5-3 .5l-9.2.2c-1.1 0-2 1.1-2.4 3.1.1 1.1.2 1.4 1.4 2.2l38-.3c1 .1 1.5.5 1.8 1 .3.7.3 1.5.2 1.8l-4.6 14.3c-.2.6-.5 1.1-.8 1.4-.8.5-.8.5-2.6.5H2.2c-.9 0-1.4 0-2.1-1.2-.2-.4-.2-1.2.2-2.3l21.1-65c.1-.2.2-.6.6-1z"/><path fill="#E43022" d="M92 1.2C91.6.6 91.1 0 90.2 0L63.5.1c-.6 0-1.2.2-1.8.6-.4.5-.6 1.1-.8 1.8l-5.1 15.7c-.1.6 0 1.3.3 1.7.3.5.7.8 1.3 1h3.3c.4.2.8.4 1.3 1.1.2.9 0 1.5-.2 2.4l-5.9 18.3c-.3 1.2-.2 1.5 0 2.2.4.5 1 .9 1.7 1l19.1.1c.7-.1.9-.4 1.4-.7.3-.4.4-.6.6-1l13.1-41c.3-.8.3-1.5.2-2.1z"/></symbol>

  <symbol id="logo-footer" viewBox="0 0 92.1 70"><path d="M22 .5c.3-.3.6-.3 1-.4l29.2.2c.9.1 1.4.6 1.9 1.3.1.7.1 1.1 0 1.6-1.9 5.7-3.5 11-5.4 16.7-.2.3-.3.7-.6 1-.5.3-.6.4-1.2.5l-3.1.1c-1.1.2-1.6 1.3-1.7 1.9.4 1.2.7 1.8 1.7 2h9c.7.2 1.2.5 1.8 1.4-.1 1.3.1 1.7-.4 2.9L49.5 44c-.1.3-.4 1.1-.8 1.3-.5.3-.9.5-3 .5l-9.2.2c-1.1 0-2 1.1-2.4 3.1.1 1.1.2 1.4 1.4 2.2l38-.3c1 .1 1.5.5 1.8 1 .3.7.3 1.5.2 1.8l-4.6 14.3c-.2.6-.5 1.1-.8 1.4-.8.5-.8.5-2.6.5H2.2c-.9 0-1.4 0-2.1-1.2-.2-.4-.2-1.2.2-2.3l21.1-65c.1-.2.2-.6.6-1z"/><path d="M92 1.2C91.6.6 91.1 0 90.2 0L63.5.1c-.6 0-1.2.2-1.8.6-.4.5-.6 1.1-.8 1.8l-5.1 15.7c-.1.6 0 1.3.3 1.7.3.5.7.8 1.3 1h3.3c.4.2.8.4 1.3 1.1.2.9 0 1.5-.2 2.4l-5.9 18.3c-.3 1.2-.2 1.5 0 2.2.4.5 1 .9 1.7 1l19.1.1c.7-.1.9-.4 1.4-.7.3-.4.4-.6.6-1l13.1-41c.3-.8.3-1.5.2-2.1z"/></symbol>

  <symbol id="car-icon" viewBox="0 0 49.9 20"><path d="M49.7 6.8c-.4-.1-1-.1-1.5-.1h-1.5l-3 .2L37.9.6l-.2-.2c-.1-.1-.3-.3-.4-.3-.2-.1-.5-.1-.8-.1H20.4c-.1 0-.3.2-.3.3l-7.5 6.5L1.3 9.5c-.2.2-.4.3-.6.5-.1.2-.4.8-.4 1.1L0 16h4.7c0-2.4 2-4.4 4.4-4.4s4.4 2 4.4 4.4h24.7c0-2.4 2-4.4 4.4-4.4 2.4 0 4.4 2 4.4 4.4h2.3l.6-8v-.2c0-.4 0-.9-.2-1zm-7.7.1H14.4l6.4-5.7H37l5 5.7z"/><path d="M42.8 12.1c-2.2 0-4 1.8-4 4s1.8 4 4 4 4-1.8 4-4-1.8-4-4-4zM9.3 12.1c-2.2 0-4 1.8-4 4s1.8 4 4 4 4-1.8 4-4-1.9-4-4-4z"/></symbol>

  <symbol id="bus-icon" viewBox="0 0 40.6 20"><path d="M40.5.1c-.3-.1-.4-.1-.7-.1H7c-.2 0-.5 0-.6.1-.3.2-.4.3-.5.5L.6 9c-.2.3-.4.5-.5 1-.1.5-.1.7-.1 1v6.4h3.6c0-1.6 1.3-2.9 2.9-2.9 1.6 0 2.9 1.3 2.9 2.9H32c0-1.6 1.3-2.9 2.9-2.9 1.6 0 2.9 1.3 2.9 2.9h2.9V.7c-.1-.2-.2-.4-.2-.6zM10.3 9.3l-8.9.6 5.2-8.6h3.7v8zm29.4 0H11.5v-8h28.2v8z"/><circle cx="6.5" cy="17.4" r="2.6"/><circle cx="34.9" cy="17.4" r="2.6"/></symbol>

  <symbol id="truck-icon" viewBox="0 0 63.8 20"><path d="M10.8 5.2h-7c-.4 0-.8.1-1 .2-.4.4-.5.6-.6 1L.4 11.1c-.1.3-.1.3-.2.8-.2.3-.2.5-.2.8v5.9h5.1c0-.2-.1-.4-.1-.6 0-1.2 1-2.1 2.1-2.1 1.2 0 2.1 1 2.1 2.1 0 .2 0 .5-.1.7h14.1c-.1-.2-.1-.4-.1-.7 0-1.2 1-2.1 2.1-2.1 1.2 0 2.1 1 2.1 2.1 0 .2 0 .5-.1.7h2.5v-3.2h-19l.1-10.3zm-3.1 6.3l-6.7.3 2.2-5.7h4.5v5.4z"/><path d="M13.4 0h50.3v15.2H13.4z"/><circle cx="25.3" cy="18.1" r="1.9"/><circle cx="7.2" cy="18.1" r="1.9"/><circle cx="46.8" cy="18.1" r="1.9"/><circle cx="51" cy="18.1" r="1.9"/><circle cx="55.3" cy="18.1" r="1.9"/></symbol>


  <symbol id="grid-view" viewBox="0 0 48 48"><path d="M0 0h12v12H0zM0 36h12v12H0zM0 18h12v12H0zM18 0h12v12H18zM18 36h12v12H18zM18 18h12v12H18zM36 0h12v12H36zM36 36h12v12H36zM36 18h12v12H36z"/></symbol>

  <symbol id="list-view" viewBox="0 0 48 48"><path d="M0 0h48v12H0zM0 36h48v12H0zM0 18h48v12H0z"/></symbol>
























</svg>